<?xml version="1.0" encoding="iso-8859-1"?>
<!-- Uploaded to: SVG Repo, www.svgrepo.com, Generator: SVG Repo Mixer Tools -->
<svg fill="#000000" height="800px" width="800px" version="1.1" id="Layer_1" xmlns="http://www.w3.org/2000/svg" xmlns:xlink="http://www.w3.org/1999/xlink" 
	 viewBox="0 0 512.007 512.007" xml:space="preserve">
<g>
	<g>
		<path d="M498.843,278.959l-40.279-16.7l-10.784-73.363c-1.539-10.471-10.523-18.231-21.107-18.231h-58.71
			c4.623-16.842,8.397-34.247,11.409-51.641c1.417-8.183,2.564-15.791,3.464-22.641c0.548-4.168,0.896-7.202,1.068-8.916
			c1.258-12.56-8.604-23.46-21.227-23.46H70.432c-10.548,0-19.512,7.708-21.092,18.137l-6.95,45.855h-14.1
			c-11.782,0-21.333,9.551-21.333,21.333c0,11.782,9.551,21.333,21.333,21.333h7.633l-3.233,21.333H22.46
			c-11.782,0-21.333,9.551-21.333,21.333c0,11.782,9.551,21.333,21.333,21.333h3.764l-5.945,39.225L0.372,380.068
			c-2.461,13.129,7.61,25.265,20.968,25.265h46.316c8.784,24.858,32.474,42.667,60.346,42.667s51.562-17.808,60.346-42.667h135.308
			c8.784,24.858,32.474,42.667,60.346,42.667c27.872,0,51.562-17.808,60.346-42.667h46.325c11.782,0,21.333-9.551,21.333-21.333
			v-85.333C512.006,290.04,506.812,282.262,498.843,278.959z M156.967,191.999H75.844l3.233-21.333h83.72
			c11.782,0,21.333-9.551,21.333-21.333c0-11.782-9.551-21.333-21.333-21.333H85.544l3.232-21.325h249.41
			c-0.272,1.66-0.557,3.351-0.854,5.07c-3.747,21.638-8.752,43.25-15.135,63.249c-0.863,2.705-1.745,5.333-2.638,7.914
			c-0.302,0.642-0.586,1.296-0.826,1.975c-11.763,33.242-25.757,55.565-41.029,65.504c-0.014,0.009-0.027,0.018-0.041,0.027
			c-0.597,0.388-1.197,0.751-1.798,1.101c-0.111,0.064-0.221,0.13-0.332,0.192c-0.537,0.306-1.076,0.594-1.617,0.869
			c-0.171,0.087-0.342,0.173-0.513,0.257c-0.502,0.246-1.004,0.48-1.508,0.7c-0.205,0.089-0.41,0.175-0.616,0.26
			c-0.484,0.201-0.969,0.393-1.456,0.57c-0.219,0.079-0.439,0.152-0.658,0.227c-0.482,0.164-0.964,0.322-1.448,0.462
			c-0.215,0.062-0.431,0.115-0.647,0.173c-0.495,0.132-0.99,0.26-1.486,0.367c-0.185,0.04-0.37,0.069-0.555,0.105
			c-0.532,0.104-1.063,0.205-1.597,0.281c-0.098,0.014-0.197,0.021-0.295,0.034c-1.304,0.172-2.613,0.266-3.929,0.266H66.102
			l3.275-21.611h87.589c11.782,0,21.333-9.551,21.333-21.333C178.3,201.55,168.749,191.999,156.967,191.999z M128.002,405.332
			c-11.777,0-21.308-9.519-21.331-21.291c0-0.014,0.002-0.028,0.002-0.042c0-11.791,9.541-21.332,21.331-21.333
			c0.7,0,1.391,0.039,2.074,0.105c0.035,0.003,0.072,0.002,0.107,0.005c0.327,0.033,0.644,0.1,0.966,0.147
			c6.869,1.018,12.669,5.293,15.766,11.225c1.537,2.948,2.418,6.294,2.418,9.851C149.336,395.79,139.793,405.332,128.002,405.332z
			 M384.002,405.332c-11.777,0-21.308-9.519-21.331-21.291c0-0.014,0.002-0.028,0.002-0.042c0-11.791,9.541-21.332,21.331-21.333
			c0.7,0,1.391,0.039,2.074,0.105c0.035,0.003,0.072,0.002,0.107,0.005c0.327,0.033,0.644,0.1,0.966,0.147
			c6.822,1.011,12.594,5.232,15.706,11.101c1.577,2.977,2.478,6.369,2.478,9.975C405.336,395.79,395.793,405.332,384.002,405.332z
			 M469.34,362.666h-24.975c-0.052-0.147-0.111-0.29-0.164-0.437c-0.087-0.24-0.179-0.477-0.269-0.715
			c-0.25-0.667-0.51-1.328-0.782-1.984c-0.113-0.273-0.226-0.545-0.343-0.816c-0.287-0.667-0.587-1.327-0.896-1.983
			c-0.1-0.212-0.195-0.426-0.297-0.637c-0.411-0.847-0.839-1.685-1.286-2.511c-0.096-0.177-0.199-0.349-0.296-0.526
			c-0.356-0.644-0.721-1.282-1.099-1.911c-0.172-0.287-0.349-0.57-0.525-0.854c-0.325-0.524-0.657-1.042-0.997-1.555
			c-0.191-0.289-0.381-0.577-0.577-0.863c-0.381-0.556-0.773-1.103-1.171-1.646c-0.156-0.213-0.306-0.431-0.465-0.642
			c-0.54-0.718-1.095-1.423-1.664-2.117c-0.209-0.255-0.425-0.502-0.638-0.754c-0.387-0.458-0.778-0.913-1.178-1.36
			c-0.257-0.287-0.517-0.571-0.779-0.853c-0.382-0.412-0.77-0.818-1.163-1.22c-0.264-0.27-0.526-0.541-0.794-0.807
			c-0.482-0.476-0.974-0.942-1.471-1.403c-0.255-0.237-0.51-0.475-0.769-0.707c-0.582-0.522-1.173-1.035-1.774-1.536
			c-0.288-0.24-0.582-0.472-0.874-0.707c-0.436-0.351-0.874-0.697-1.319-1.037c-0.315-0.24-0.632-0.478-0.952-0.713
			c-0.458-0.336-0.922-0.663-1.389-0.987c-0.301-0.208-0.598-0.42-0.903-0.624c-0.738-0.494-1.485-0.976-2.245-1.439
			c-0.218-0.133-0.442-0.256-0.662-0.387c-0.585-0.347-1.173-0.688-1.769-1.017c-0.323-0.178-0.65-0.349-0.977-0.522
			c-0.515-0.272-1.034-0.539-1.557-0.797c-0.335-0.166-0.671-0.33-1.009-0.49c-0.577-0.273-1.16-0.534-1.747-0.789
			c-0.278-0.121-0.553-0.248-0.833-0.366c-0.847-0.355-1.703-0.693-2.569-1.012c-0.25-0.092-0.504-0.175-0.756-0.264
			c-0.65-0.231-1.303-0.454-1.962-0.664c-0.328-0.104-0.659-0.204-0.989-0.303c-0.615-0.185-1.233-0.36-1.856-0.527
			c-0.32-0.086-0.64-0.173-0.962-0.254c-0.76-0.191-1.525-0.366-2.295-0.529c-0.176-0.037-0.35-0.081-0.526-0.117
			c-0.944-0.192-1.897-0.36-2.856-0.51c-0.269-0.042-0.541-0.075-0.811-0.114c-0.708-0.101-1.419-0.193-2.135-0.271
			c-0.33-0.036-0.661-0.068-0.993-0.099c-0.699-0.065-1.401-0.118-2.106-0.16c-0.302-0.018-0.603-0.04-0.907-0.054
			c-0.996-0.046-1.996-0.076-3.003-0.076c-0.001,0-0.002,0-0.002,0c-0.001,0-0.001,0-0.002,0c-0.005,0-0.011,0-0.016,0
			c-0.999,0-1.991,0.03-2.979,0.075c-0.316,0.015-0.63,0.037-0.944,0.057c-0.689,0.042-1.375,0.093-2.057,0.156
			c-0.346,0.032-0.692,0.066-1.036,0.104c-0.694,0.076-1.385,0.165-2.072,0.263c-0.289,0.041-0.58,0.077-0.868,0.122
			c-0.949,0.148-1.892,0.315-2.827,0.505c-0.206,0.042-0.408,0.093-0.613,0.136c-0.74,0.158-1.476,0.326-2.206,0.509
			c-0.336,0.084-0.668,0.175-1.002,0.264c-0.609,0.163-1.214,0.335-1.816,0.515c-0.339,0.102-0.678,0.203-1.015,0.311
			c-0.65,0.207-1.294,0.427-1.935,0.654c-0.259,0.092-0.52,0.177-0.777,0.272c-0.864,0.319-1.718,0.656-2.564,1.011
			c-0.28,0.117-0.555,0.244-0.833,0.365c-0.588,0.257-1.173,0.518-1.752,0.792c-0.335,0.158-0.667,0.321-0.999,0.485
			c-0.529,0.261-1.053,0.531-1.574,0.806c-0.321,0.17-0.642,0.338-0.96,0.513c-0.612,0.337-1.216,0.687-1.815,1.044
			c-0.204,0.121-0.413,0.236-0.616,0.36c-0.765,0.466-1.517,0.952-2.26,1.449c-0.295,0.197-0.584,0.403-0.875,0.605
			c-0.477,0.33-0.95,0.665-1.417,1.008c-0.314,0.23-0.625,0.463-0.934,0.699c-0.452,0.344-0.897,0.696-1.339,1.052
			c-0.288,0.232-0.578,0.461-0.861,0.697c-0.602,0.502-1.193,1.015-1.776,1.538c-0.264,0.237-0.524,0.48-0.784,0.721
			c-0.49,0.454-0.975,0.913-1.45,1.383c-0.277,0.274-0.548,0.554-0.82,0.833c-0.379,0.388-0.754,0.781-1.124,1.179
			c-0.275,0.297-0.549,0.594-0.818,0.896c-0.374,0.419-0.74,0.845-1.103,1.273c-0.238,0.281-0.481,0.559-0.715,0.844
			c-0.552,0.675-1.092,1.361-1.617,2.058c-0.209,0.278-0.407,0.563-0.612,0.845c-0.341,0.469-0.679,0.939-1.007,1.417
			c-0.233,0.34-0.46,0.684-0.687,1.028c-0.289,0.44-0.573,0.883-0.852,1.33c-0.22,0.353-0.44,0.705-0.653,1.062
			c-0.294,0.492-0.576,0.99-0.857,1.49c-0.176,0.314-0.358,0.623-0.529,0.94c-0.414,0.767-0.81,1.545-1.193,2.33
			c-0.173,0.354-0.334,0.715-0.5,1.073c-0.229,0.492-0.455,0.986-0.671,1.484c-0.171,0.394-0.336,0.79-0.499,1.187
			c-0.199,0.487-0.391,0.977-0.579,1.469c-0.15,0.394-0.302,0.786-0.444,1.183c-0.033,0.093-0.071,0.183-0.103,0.276H188.365
			c-0.052-0.147-0.111-0.29-0.164-0.437c-0.087-0.24-0.179-0.477-0.269-0.715c-0.25-0.667-0.51-1.328-0.782-1.984
			c-0.113-0.273-0.226-0.545-0.343-0.816c-0.287-0.667-0.587-1.327-0.896-1.983c-0.1-0.212-0.195-0.426-0.297-0.637
			c-0.411-0.847-0.839-1.685-1.286-2.511c-0.096-0.177-0.199-0.349-0.296-0.526c-0.356-0.644-0.721-1.282-1.099-1.911
			c-0.172-0.287-0.349-0.57-0.525-0.854c-0.325-0.524-0.657-1.042-0.997-1.555c-0.191-0.289-0.381-0.577-0.577-0.863
			c-0.381-0.556-0.773-1.103-1.171-1.646c-0.156-0.213-0.306-0.431-0.465-0.642c-0.54-0.718-1.095-1.423-1.664-2.117
			c-0.209-0.255-0.425-0.502-0.638-0.754c-0.387-0.458-0.778-0.913-1.178-1.36c-0.257-0.287-0.517-0.571-0.779-0.853
			c-0.382-0.412-0.77-0.818-1.163-1.22c-0.264-0.27-0.526-0.541-0.794-0.807c-0.482-0.476-0.974-0.942-1.471-1.403
			c-0.255-0.237-0.51-0.475-0.769-0.707c-0.582-0.522-1.173-1.035-1.774-1.536c-0.288-0.24-0.582-0.472-0.874-0.707
			c-0.436-0.351-0.874-0.697-1.319-1.037c-0.315-0.24-0.632-0.478-0.952-0.713c-0.458-0.336-0.922-0.663-1.389-0.987
			c-0.301-0.208-0.598-0.42-0.903-0.624c-0.738-0.494-1.485-0.976-2.245-1.439c-0.218-0.133-0.442-0.256-0.662-0.387
			c-0.585-0.347-1.173-0.688-1.769-1.017c-0.323-0.178-0.65-0.349-0.977-0.522c-0.515-0.272-1.034-0.539-1.557-0.797
			c-0.335-0.166-0.671-0.33-1.009-0.49c-0.577-0.273-1.16-0.534-1.747-0.789c-0.278-0.121-0.553-0.248-0.833-0.366
			c-0.847-0.355-1.703-0.693-2.569-1.012c-0.25-0.092-0.504-0.175-0.756-0.264c-0.65-0.231-1.303-0.454-1.962-0.664
			c-0.328-0.104-0.659-0.204-0.989-0.303c-0.615-0.185-1.233-0.36-1.856-0.527c-0.32-0.086-0.64-0.173-0.962-0.254
			c-0.76-0.191-1.525-0.366-2.295-0.529c-0.176-0.037-0.35-0.081-0.526-0.117c-0.944-0.192-1.897-0.36-2.856-0.51
			c-0.269-0.042-0.541-0.075-0.811-0.114c-0.708-0.101-1.419-0.193-2.135-0.271c-0.33-0.036-0.661-0.068-0.993-0.099
			c-0.699-0.065-1.401-0.118-2.106-0.16c-0.302-0.018-0.603-0.04-0.907-0.054c-0.996-0.046-1.996-0.076-3.003-0.076
			c-0.001,0-0.002,0-0.002,0c-0.001,0-0.001,0-0.002,0c-0.005,0-0.011,0-0.016,0c-0.999,0-1.991,0.03-2.979,0.075
			c-0.316,0.015-0.63,0.037-0.945,0.057c-0.689,0.042-1.374,0.093-2.057,0.156c-0.346,0.032-0.692,0.066-1.037,0.104
			c-0.694,0.076-1.384,0.165-2.071,0.263c-0.29,0.041-0.581,0.077-0.869,0.122c-0.949,0.148-1.892,0.315-2.827,0.505
			c-0.206,0.042-0.408,0.093-0.614,0.136c-0.74,0.158-1.475,0.326-2.205,0.509c-0.336,0.084-0.669,0.175-1.003,0.265
			c-0.609,0.163-1.214,0.335-1.815,0.515c-0.339,0.102-0.679,0.204-1.015,0.311c-0.65,0.207-1.293,0.427-1.933,0.654
			c-0.259,0.092-0.522,0.177-0.779,0.272c-0.863,0.319-1.718,0.656-2.563,1.01c-0.281,0.118-0.556,0.245-0.835,0.367
			c-0.587,0.256-1.172,0.518-1.75,0.791c-0.336,0.159-0.668,0.322-1,0.486c-0.529,0.261-1.053,0.53-1.573,0.805
			c-0.321,0.17-0.643,0.338-0.96,0.513c-0.611,0.337-1.214,0.686-1.812,1.042c-0.205,0.122-0.415,0.237-0.619,0.362
			c-0.764,0.466-1.516,0.951-2.259,1.448c-0.296,0.198-0.585,0.404-0.878,0.607c-0.476,0.33-0.949,0.664-1.415,1.006
			c-0.314,0.23-0.625,0.463-0.934,0.699c-0.452,0.344-0.897,0.696-1.339,1.052c-0.288,0.232-0.578,0.461-0.862,0.697
			c-0.599,0.5-1.189,1.011-1.769,1.532c-0.268,0.241-0.531,0.487-0.795,0.732c-0.487,0.453-0.971,0.909-1.444,1.377
			c-0.278,0.275-0.55,0.556-0.823,0.836c-0.378,0.387-0.752,0.778-1.12,1.175c-0.276,0.297-0.55,0.596-0.821,0.899
			c-0.373,0.417-0.737,0.842-1.099,1.269c-0.24,0.283-0.483,0.561-0.718,0.848c-0.552,0.675-1.092,1.36-1.617,2.057
			c-0.209,0.278-0.407,0.563-0.612,0.845c-0.341,0.469-0.679,0.939-1.007,1.417c-0.233,0.34-0.46,0.684-0.687,1.028
			c-0.289,0.44-0.573,0.883-0.852,1.33c-0.22,0.353-0.44,0.705-0.653,1.062c-0.294,0.492-0.576,0.99-0.857,1.49
			c-0.176,0.314-0.358,0.623-0.529,0.94c-0.414,0.767-0.81,1.545-1.193,2.33c-0.173,0.354-0.334,0.715-0.5,1.073
			c-0.229,0.492-0.455,0.986-0.671,1.484c-0.171,0.394-0.336,0.79-0.499,1.188c-0.199,0.486-0.391,0.975-0.578,1.466
			c-0.151,0.395-0.303,0.789-0.446,1.187c-0.033,0.092-0.07,0.182-0.103,0.274H47.045l11.946-63.714h200.221
			c43.008,0,73.117-32.36,94.548-85.619h54.488l9.864,67.103c1.091,7.425,6.004,13.73,12.936,16.604l38.293,15.876V362.666z"/>
	</g>
</g>
</svg>